<svg width="15" height="10" viewBox="0 0 15 10" fill="none" xmlns="http://www.w3.org/2000/svg">
<g clip-path="url(#clip0_16760_111)">
<path d="M13.4832 8.42578H5.22217V9.65279H13.4832V8.42578Z" fill="#334565" fill-opacity="0.2"/>
<path d="M14.877 0.709823C14.8083 0.612153 14.721 0.528996 14.6201 0.465116C14.6201 0.465116 13.3168 0 12.5896 0C11.4823 0 10.6528 0.432142 9.7312 0.980562L8.5875 1.65741C8.58358 1.65887 8.57926 1.65887 8.57535 1.65741L4.56459 0.963207C4.49998 0.951134 4.43321 0.959632 4.37368 0.987504L3.73675 1.28428C3.70166 1.30032 3.67192 1.3261 3.65106 1.35856C3.63021 1.39102 3.61913 1.42879 3.61913 1.46737C3.61913 1.50595 3.63021 1.54372 3.65106 1.57618C3.67192 1.60864 3.70166 1.63443 3.73675 1.65047L6.38513 2.93127C6.38802 2.93296 6.39041 2.93536 6.39207 2.93826C6.39373 2.94115 6.3946 2.94443 6.3946 2.94776C6.3946 2.9511 6.39373 2.95437 6.39207 2.95727C6.39041 2.96016 6.38802 2.96257 6.38513 2.96425L3.64303 4.59736L3.60138 4.62166C3.08221 4.92092 2.46925 5.01327 1.88496 4.88025L0.456637 4.55918C0.384902 4.54206 0.309836 4.54507 0.239698 4.56786C0.180784 4.58859 0.128257 4.62425 0.0872493 4.67136C0.0462419 4.71846 0.0181575 4.7754 0.00574101 4.83661C-0.0066755 4.89782 -0.00299934 4.9612 0.0164102 5.02056C0.0358198 5.07993 0.0702986 5.13324 0.116477 5.17529L1.70967 6.63658C1.83052 6.75075 1.98162 6.8278 2.14499 6.85857C2.30836 6.88933 2.47713 6.87252 2.63123 6.81014L3.42436 6.48907L7.93668 4.59215L14.2921 1.90906C14.9238 1.65047 15.1668 1.13155 14.877 0.709823Z" fill="#334565" fill-opacity="0.2"/>
<path d="M9.12879 4.65625L7.24056 5.44591L6.88304 7.00786C6.87899 7.02876 6.87955 7.05029 6.88471 7.07094C6.88986 7.0916 6.89947 7.11087 6.91287 7.12741C6.92627 7.14395 6.94313 7.15736 6.96226 7.16669C6.98139 7.17602 7.00234 7.18105 7.02362 7.18142H7.20932C7.33487 7.18151 7.45838 7.14971 7.56827 7.089C7.67817 7.02829 7.77083 6.94065 7.83757 6.83431L9.12879 4.65625Z" fill="#334565" fill-opacity="0.2"/>
</g>
<defs>
<clipPath id="clip0_16760_111">
<rect width="15" height="9.65116" fill="white"/>
</clipPath>
</defs>
</svg>
