<svg width="112" height="32" viewBox="0 0 109 32" preserveAspectRatio="none" xmlns="http://www.w3.org/2000/svg"><rect width="106" height="32" rx="6" fill="#39404A"/>
<path d="M29.5 9.25H14.5L20.5 16.345V21.25L23.5 22.75V16.345L29.5 9.25Z" stroke="#EEF0F1" stroke-width="1.5" stroke-linecap="round" stroke-linejoin="round"/>
<path d="M41.05 21V11.2H47.014V12.166H42.226V15.61H46.3V16.562H42.226V21H41.05ZM48.5842 21V13.944H49.7602V21H48.5842ZM49.1722 12.446C48.9389 12.446 48.7429 12.3713 48.5842 12.222C48.4349 12.0633 48.3602 11.8673 48.3602 11.634C48.3602 11.4007 48.4349 11.214 48.5842 11.074C48.7429 10.9247 48.9389 10.85 49.1722 10.85C49.3962 10.85 49.5875 10.9247 49.7462 11.074C49.9049 11.214 49.9842 11.4007 49.9842 11.634C49.9842 11.8673 49.9049 12.0633 49.7462 12.222C49.5875 12.3713 49.3962 12.446 49.1722 12.446ZM51.8355 21V10.92H53.0115V21H51.8355ZM57.7247 21C57.3047 21 56.9407 20.9347 56.6327 20.804C56.3247 20.6733 56.0867 20.454 55.9187 20.146C55.76 19.8287 55.6807 19.404 55.6807 18.872V14.938H54.4487V13.944H55.6807L55.8347 12.236H56.8567V13.944H58.9007V14.938H56.8567V18.872C56.8567 19.3107 56.9453 19.6093 57.1227 19.768C57.3 19.9173 57.6127 19.992 58.0607 19.992H58.8167V21H57.7247ZM63.3377 21.168C62.675 21.168 62.087 21.014 61.5737 20.706C61.0697 20.398 60.673 19.9687 60.3837 19.418C60.0943 18.858 59.9497 18.2093 59.9497 17.472C59.9497 16.7253 60.0897 16.0767 60.3697 15.526C60.659 14.9753 61.0603 14.546 61.5737 14.238C62.0963 13.93 62.6937 13.776 63.3657 13.776C64.0563 13.776 64.6397 13.93 65.1157 14.238C65.601 14.546 65.9697 14.952 66.2217 15.456C66.483 15.9507 66.6137 16.4967 66.6137 17.094C66.6137 17.1873 66.6137 17.2853 66.6137 17.388C66.6137 17.4907 66.609 17.6073 66.5997 17.738H60.8317V16.828H65.4657C65.4377 16.184 65.223 15.68 64.8217 15.316C64.4297 14.952 63.935 14.77 63.3377 14.77C62.9363 14.77 62.563 14.8633 62.2177 15.05C61.8817 15.2273 61.611 15.4933 61.4057 15.848C61.2003 16.1933 61.0977 16.6273 61.0977 17.15V17.542C61.0977 18.1207 61.2003 18.606 61.4057 18.998C61.6203 19.39 61.8957 19.684 62.2317 19.88C62.577 20.076 62.9457 20.174 63.3377 20.174C63.8323 20.174 64.2383 20.0667 64.5557 19.852C64.8823 19.628 65.1157 19.3293 65.2557 18.956H66.4177C66.3057 19.376 66.1097 19.754 65.8297 20.09C65.5497 20.426 65.1997 20.692 64.7797 20.888C64.369 21.0747 63.8883 21.168 63.3377 21.168ZM68.2007 21V13.944H69.2647L69.3487 15.288C69.5074 14.9707 69.708 14.7 69.9507 14.476C70.2027 14.252 70.5014 14.0793 70.8467 13.958C71.2014 13.8367 71.6027 13.776 72.0507 13.776V15.008H71.6167C71.318 15.008 71.0334 15.05 70.7627 15.134C70.492 15.2087 70.2494 15.3347 70.0347 15.512C69.8294 15.6893 69.666 15.932 69.5447 16.24C69.4327 16.5387 69.3767 16.912 69.3767 17.36V21H68.2007ZM76.0423 21.168C75.4543 21.168 74.941 21.07 74.5023 20.874C74.073 20.678 73.7277 20.4073 73.4663 20.062C73.2143 19.7073 73.0603 19.292 73.0043 18.816H74.2083C74.255 19.0587 74.353 19.2827 74.5023 19.488C74.6517 19.6933 74.8523 19.8613 75.1043 19.992C75.3657 20.1133 75.683 20.174 76.0563 20.174C76.383 20.174 76.6537 20.1273 76.8683 20.034C77.083 19.9313 77.2417 19.796 77.3443 19.628C77.4563 19.46 77.5123 19.278 77.5123 19.082C77.5123 18.7927 77.4423 18.5733 77.3023 18.424C77.1717 18.2747 76.9757 18.158 76.7143 18.074C76.453 17.9807 76.1357 17.9013 75.7623 17.836C75.4543 17.78 75.151 17.7053 74.8523 17.612C74.5537 17.5187 74.2877 17.3973 74.0543 17.248C73.821 17.0893 73.6343 16.898 73.4943 16.674C73.3637 16.45 73.2983 16.1747 73.2983 15.848C73.2983 15.4467 73.401 15.092 73.6063 14.784C73.8117 14.4667 74.1057 14.2193 74.4883 14.042C74.8803 13.8647 75.333 13.776 75.8463 13.776C76.6023 13.776 77.2137 13.958 77.6803 14.322C78.147 14.686 78.4223 15.2133 78.5063 15.904H77.3443C77.2977 15.5493 77.1437 15.274 76.8823 15.078C76.6303 14.8727 76.2803 14.77 75.8323 14.77C75.3937 14.77 75.0577 14.8587 74.8243 15.036C74.6003 15.2133 74.4883 15.4467 74.4883 15.736C74.4883 15.9227 74.549 16.0907 74.6703 16.24C74.801 16.38 74.9877 16.5013 75.2303 16.604C75.4823 16.7067 75.7903 16.7907 76.1543 16.856C76.621 16.94 77.0457 17.052 77.4283 17.192C77.811 17.332 78.119 17.542 78.3523 17.822C78.595 18.0927 78.7163 18.48 78.7163 18.984C78.7163 19.4227 78.6043 19.8053 78.3803 20.132C78.1657 20.4587 77.8577 20.7153 77.4563 20.902C77.055 21.0793 76.5837 21.168 76.0423 21.168Z" fill="white"/>
</svg>
