<svg width="15" height="11" viewBox="0 0 15 11" fill="none" xmlns="http://www.w3.org/2000/svg">
<path d="M0.900061 9.58594H10.0049V10.9383H0.900061V9.58594Z" fill="#334565"/>
<path d="M14.9778 8.44238C15.0005 8.31232 14.9972 8.17906 14.9682 8.05026C14.9682 8.05026 14.3141 6.67115 13.7479 6.10496C12.8852 5.2423 11.902 4.93434 10.7582 4.64169L9.33892 4.27826C9.3346 4.27987 9.32985 4.27987 9.32553 4.27826L6.73754 0.607642C6.69784 0.549968 6.64193 0.505368 6.57687 0.479486L5.85384 0.207871C5.81425 0.192637 5.77112 0.18907 5.72957 0.197594C5.68801 0.206118 5.64978 0.226375 5.61938 0.255965C5.58899 0.285554 5.56771 0.323237 5.55807 0.364548C5.54844 0.405858 5.55084 0.449065 5.56501 0.48905L6.63425 3.54949C6.63536 3.55303 6.63552 3.55681 6.6347 3.56042C6.63388 3.56404 6.63212 3.56738 6.62959 3.5701C6.62707 3.57282 6.62387 3.57482 6.62032 3.57591C6.61677 3.57699 6.613 3.57712 6.60939 3.57627L3.19317 2.70405L3.14152 2.69066C2.50468 2.52125 1.95538 2.11747 1.60365 1.5602L0.748636 0.204046C0.706306 0.134485 0.645348 0.0781637 0.57266 0.0414596C0.510016 0.0103767 0.440286 -0.00364507 0.370495 0.00080726C0.300705 0.00525959 0.23332 0.0280287 0.175133 0.0668202C0.116945 0.105612 0.0700111 0.159055 0.0390587 0.221764C0.00810623 0.284474 -0.00576973 0.354234 -0.00117207 0.424015L0.100204 2.80351C0.108555 2.98616 0.168268 3.16275 0.272483 3.31298C0.376698 3.46321 0.521186 3.58099 0.689341 3.65278L1.55392 4.01812L6.54244 6.04567L13.5891 8.91483C14.2796 9.2094 14.8764 8.99135 14.9778 8.44238Z" fill="#334565"/>
<path d="M7.42236 7.03661L5.33552 6.17969L3.83973 7.11886C3.81938 7.13188 3.80219 7.14926 3.78941 7.16975C3.77662 7.19025 3.76856 7.21333 3.76581 7.23733C3.76306 7.26132 3.7657 7.28563 3.77352 7.30848C3.78134 7.33133 3.79416 7.35216 3.81104 7.36944L3.9545 7.51481C4.05052 7.6134 4.17021 7.68574 4.30215 7.72492C4.43408 7.7641 4.57386 7.76881 4.70813 7.7386L7.42236 7.03661Z" fill="#334565"/>
</svg>
